<?xml version="1.0" encoding="UTF-8"?>
<!DOCTYPE svg PUBLIC "-//W3C//DTD SVG 1.1//EN" "http://www.w3.org/Graphics/SVG/1.1/DTD/svg11.dtd">
<!-- Creator: CorelDRAW X7 -->
<svg xmlns="http://www.w3.org/2000/svg" xml:space="preserve" width="2550px" height="3300px" version="1.1" style="shape-rendering:geometricPrecision; text-rendering:geometricPrecision; image-rendering:optimizeQuality; fill-rule:evenodd; clip-rule:evenodd"
viewBox="0 0 2550 3300"
 xmlns:xlink="http://www.w3.org/1999/xlink"
 xmlns:dc="http://purl.org/dc/elements/1.1/"
 xmlns:cc="http://creativecommons.org/ns#"
 xmlns:rdf="http://www.w3.org/1999/02/22-rdf-syntax-ns#"
 xmlns:svg="http://www.w3.org/2000/svg"
 xmlns:sodipodi="http://sodipodi.sourceforge.net/DTD/sodipodi-0.dtd"
 xmlns:inkscape="http://www.inkscape.org/namespaces/inkscape"
 sodipodi:docname="ElectriCar (1).cdr">
 <defs>
  <style type="text/css">
   <![CDATA[
    .fil2 {fill:#373435}
    .fil0 {fill:#00CC00}
    .fil1 {fill:#00CC00}
   ]]>
  </style>
 </defs>
 <g id="Layer_x0020_1">
  <metadata id="CorelCorpID_0Corel-Layer"/>
  <sodipodi:namedview pagecolor="#ffffff" bordercolor="#666666" borderopacity="1" objecttolerance="10" gridtolerance="10" guidetolerance="10" inkscape:pageopacity="0" inkscape:pageshadow="2" inkscape:window-width="640" inkscape:window-height="480" id="namedview24"/>
  <path id="path2" class="fil0" d="M844 719c0,0 0,0 0,-4l101 0c2,0 3,-2 3,-4 0,-2 -1,-3 -3,-3l-4 0c-4,0 -7,-3 -7,-7l0 -4c-3,-1 -5,-4 -5,-7l0 -5 2 0 0 -5c0,0 0,-1 1,-1 1,0 2,1 2,1l0 5 3 0 0 -5c0,0 1,-1 2,-1 0,0 1,1 1,1l0 5 2 0 0 5c0,3 -2,6 -5,7l0 4c0,2 2,3 4,3l4 0c4,0 7,4 7,7 0,4 -3,7 -7,8l-101 0z"/>
  <path class="fil1" d="M854 700c0,-3 1,-6 2,-7 2,-2 4,-2 6,-2 3,0 5,0 6,2 1,1 1,2 1,4l-3 0c0,-1 -1,-2 -1,-2 -1,-1 -2,-1 -3,-1 -1,0 -2,0 -3,1 -1,1 -1,3 -1,5 0,2 0,3 1,4 1,1 2,1 3,1 1,0 2,0 3,-1 0,0 1,-1 1,-2l3 0c0,2 -1,4 -2,5 -1,1 -3,1 -5,1 -2,0 -4,0 -6,-2 -1,-2 -2,-4 -2,-6zm23 2l4 0 -2 -7 -2 7zm0 -11l4 0 6 17 -4 0 -1 -4 -6 0 -1 4 -4 0 6 -17zm16 3l0 4 4 0c1,0 1,0 2,0 1,0 1,-1 1,-2 0,-1 0,-2 -1,-2 -1,0 -1,0 -2,0l-4 0zm5 -3c1,0 2,0 3,0 0,1 1,1 1,1 1,1 1,1 1,2 0,0 0,1 0,2 0,1 0,1 0,2 -1,1 -1,1 -2,2 1,0 1,1 1,1 1,1 1,2 1,3l0 1c0,1 0,1 0,2 0,0 0,0 1,1l0 0 -4 0c0,0 0,-1 0,-1 -1,0 -1,-1 -1,-1l0 -2c0,-1 0,-2 0,-2 -1,-1 -1,-1 -2,-1l-4 0 0 7 -4 0 0 -17 9 0zm11 12c0,1 0,1 1,1 0,1 1,2 3,2 1,0 1,-1 2,-1 1,0 1,-1 1,-2 0,0 0,-1 0,-1 -1,0 -2,-1 -3,-1l-2 0c-1,-1 -3,-1 -3,-2 -1,0 -2,-2 -2,-3 0,-2 1,-3 2,-4 1,-1 2,-2 5,-2 1,0 3,1 4,2 2,1 2,2 2,4l-3 0c0,-1 -1,-2 -2,-2 0,-1 -1,-1 -2,-1 -1,0 -1,1 -2,1 0,0 -1,1 -1,1 0,1 1,2 1,2 0,0 1,0 2,1l3 0c2,1 3,1 3,1 1,1 2,2 2,4 0,2 -1,3 -2,4 -1,1 -3,1 -5,1 -2,0 -4,0 -5,-1 -2,-1 -2,-2 -2,-4l3 0z"/>
  <path class="fil2" d="M765 694l-9 0 0 4 9 0 0 3 -9 0 0 4 10 0 0 3 -13 0 0 -17 12 0 0 3zm4 -3l3 0 0 14 9 0 0 3 -12 0 0 -17zm27 3l-9 0 0 4 8 0 0 3 -8 0 0 4 9 0 0 3 -13 0 0 -17 13 0 0 3zm2 6c0,-3 1,-6 3,-7 1,-2 3,-2 5,-2 3,0 5,0 6,2 1,1 2,2 2,4l-4 0c0,-1 0,-2 -1,-2 0,-1 -1,-1 -3,-1 -1,0 -2,0 -3,1 -1,1 -1,3 -1,5 0,2 0,3 1,4 1,1 2,1 3,1 2,0 3,0 3,-1 1,0 1,-1 1,-2l4 0c-1,2 -1,4 -3,5 -1,1 -3,1 -5,1 -2,0 -4,0 -5,-2 -2,-1 -3,-4 -3,-6l0 0zm31 -9l0 3 -5 0 0 14 -4 0 0 -14 -5 0 0 -3 14 0zm6 3l0 4 4 0c0,0 1,0 1,0 1,0 2,-1 2,-2 0,-1 -1,-2 -2,-2 0,0 -1,0 -1,0l-4 0zm4 -3c2,0 3,0 3,0 1,1 1,1 2,1 0,1 1,1 1,2 0,0 0,1 0,2 0,1 0,1 -1,2 0,1 -1,1 -2,2 1,0 2,1 2,1 0,1 1,2 1,3l0 1c0,1 0,1 0,2 0,0 0,0 0,1l0 0 -4 0c0,0 0,-1 0,-1 0,0 0,-1 0,-1l0 -2c0,-1 0,-2 -1,-2 0,-1 -1,-1 -2,-1l-3 0 0 7 -4 0 0 -17 8 0zm12 17l-3 0 0 -17 3 0 0 17z"/>
 </g>
</svg>
